<?xml version="1.0" encoding="UTF-8" standalone="no"?>
<!-- Created with Inkscape (http://www.inkscape.org/) -->

<svg
   xmlns:dc="http://purl.org/dc/elements/1.1/"
   xmlns:cc="http://creativecommons.org/ns#"
   xmlns:rdf="http://www.w3.org/1999/02/22-rdf-syntax-ns#"
   xmlns:svg="http://www.w3.org/2000/svg"
   xmlns="http://www.w3.org/2000/svg"
   xmlns:sodipodi="http://sodipodi.sourceforge.net/DTD/sodipodi-0.dtd"
   xmlns:inkscape="http://www.inkscape.org/namespaces/inkscape"
   width="30.48mm"
   height="128.5mm"
   viewBox="0 0 30.480002 128.50002"
   version="1.1"
   id="svg8"
   inkscape:version="0.91 r13725"
   sodipodi:docname="ChickenModule.svg">
  <defs
     id="defs2" />
  <sodipodi:namedview
     id="base"
     pagecolor="#ffffff"
     bordercolor="#666666"
     borderopacity="1.0"
     inkscape:pageopacity="0.0"
     inkscape:pageshadow="2"
     inkscape:zoom="0.98994949"
     inkscape:cx="333.61608"
     inkscape:cy="191.1767"
     inkscape:document-units="mm"
     inkscape:current-layer="layer2"
     showgrid="false"
     units="mm"
     inkscape:snap-bbox="true"
     inkscape:snap-page="true"
     inkscape:bbox-nodes="false"
     inkscape:snap-bbox-edge-midpoints="false"
     inkscape:window-width="1855"
     inkscape:window-height="1056"
     inkscape:window-x="65"
     inkscape:window-y="24"
     inkscape:window-maximized="1"
     inkscape:snap-bbox-midpoints="true"
     inkscape:snap-nodes="false"
     inkscape:snap-text-baseline="true" />
  <metadata
     id="metadata5">
    <rdf:RDF>
      <cc:Work
         rdf:about="">
        <dc:format>image/svg+xml</dc:format>
        <dc:type
           rdf:resource="http://purl.org/dc/dcmitype/StillImage" />
        <dc:title />
      </cc:Work>
    </rdf:RDF>
  </metadata>
  <g
     inkscape:label="Layer 1"
     inkscape:groupmode="layer"
     id="layer1"
     transform="translate(0,-168.49998)">
    <rect
       style="display:inline;opacity:1;vector-effect:none;fill:#e6e6e6;fill-opacity:1;fill-rule:evenodd;stroke:none;stroke-width:0.64935839;stroke-linecap:butt;stroke-linejoin:miter;stroke-miterlimit:4;stroke-dasharray:none;stroke-dashoffset:0;stroke-opacity:1;paint-order:normal"
       id="rect420"
       width="30.48"
       height="128.5"
       x="5.9211732e-17"
       y="168.49997" />
    <g
       aria-label="My Module"
       style="font-style:normal;font-variant:normal;font-weight:normal;font-stretch:normal;font-size:4.93888855px;line-height:6.61458302px;font-family:'Gotham Rounded';-inkscape-font-specification:'Gotham Rounded';font-variant-ligatures:normal;font-variant-caps:normal;font-variant-numeric:normal;font-feature-settings:normal;text-align:center;letter-spacing:0px;word-spacing:0px;writing-mode:lr-tb;text-anchor:middle;display:inline;fill:#000000;fill-opacity:1;stroke:none;stroke-width:0.26458332px;stroke-linecap:butt;stroke-linejoin:miter;stroke-opacity:1"
       id="text1229">
      <path
         d="m 3.8783293,178.67396 c 0,0.1778 0.1397,0.3175 0.3174999,0.3175 0.1778,0 0.3217334,-0.1397 0.3217334,-0.3175 v -1.4732 l 0.5630333,0.86784 c 0.067733,0.1016 0.1524,0.1651 0.2709333,0.1651 0.1185333,0 0.2032,-0.0635 0.2709333,-0.1651 l 0.5715,-0.88054 v 1.47744 c 0,0.1778 0.1439333,0.32596 0.3217333,0.32596 0.1820333,0 0.3259666,-0.14393 0.3259666,-0.32596 v -2.35374 c 0,-0.18203 -0.1439333,-0.32596 -0.3259666,-0.32596 h -0.071967 c -0.1312333,0 -0.2243666,0.055 -0.2921,0.1651 l -0.7916333,1.28693 -0.7873999,-1.2827 c -0.059267,-0.0974 -0.1566333,-0.16933 -0.2963333,-0.16933 h -0.071967 c -0.1820333,0 -0.3259666,0.14393 -0.3259666,0.32596 z"
         style="font-style:normal;font-variant:normal;font-weight:normal;font-stretch:normal;font-size:4.23333311px;font-family:'Gotham Rounded';-inkscape-font-specification:'Gotham Rounded';text-align:center;text-anchor:middle;stroke-width:0.26458332px"
         id="path5029" />
      <path
         d="m 7.9515894,179.6561 c 0.3852333,0 0.5757333,-0.17357 0.7662333,-0.635 l 0.7916333,-1.90077 c 0.0127,-0.0296 0.029633,-0.1016 0.029633,-0.1524 0,-0.16933 -0.1397,-0.29633 -0.3048,-0.29633 -0.1651,0 -0.2582333,0.11006 -0.3090333,0.24553 L 8.4511227,178.2337 7.960056,176.9129 c -0.055033,-0.1524 -0.1481666,-0.2413 -0.3090333,-0.2413 -0.1778,0 -0.3175,0.127 -0.3175,0.30903 0,0.0423 0.016933,0.10583 0.033867,0.14817 l 0.7747,1.79493 -0.021167,0.0508 c -0.059267,0.1143 -0.1143,0.13547 -0.2286,0.13547 -0.046567,0 -0.080433,-0.008 -0.1354667,-0.0254 -0.0254,-0.008 -0.055033,-0.0169 -0.1058333,-0.0169 -0.1312333,0 -0.254,0.10584 -0.254,0.26247 0,0.15663 0.1100667,0.23283 0.2032,0.2667 0.1058333,0.0381 0.2074333,0.0593 0.3513667,0.0593 z"
         style="font-style:normal;font-variant:normal;font-weight:normal;font-stretch:normal;font-size:4.23333311px;font-family:'Gotham Rounded';-inkscape-font-specification:'Gotham Rounded';text-align:center;text-anchor:middle;stroke-width:0.26458332px"
         id="path5031" />
      <path
         d="m 11.303198,178.67396 c 0,0.1778 0.1397,0.3175 0.3175,0.3175 0.1778,0 0.321734,-0.1397 0.321734,-0.3175 v -1.4732 l 0.563033,0.86784 c 0.06773,0.1016 0.1524,0.1651 0.270933,0.1651 0.118534,0 0.2032,-0.0635 0.270934,-0.1651 l 0.5715,-0.88054 v 1.47744 c 0,0.1778 0.143933,0.32596 0.321733,0.32596 0.182033,0 0.325966,-0.14393 0.325966,-0.32596 v -2.35374 c 0,-0.18203 -0.143933,-0.32596 -0.325966,-0.32596 h -0.07197 c -0.131233,0 -0.224366,0.055 -0.2921,0.1651 l -0.791633,1.28693 -0.7874,-1.2827 c -0.05927,-0.0974 -0.156633,-0.16933 -0.296333,-0.16933 h -0.07197 c -0.182033,0 -0.325967,0.14393 -0.325967,0.32596 z"
         style="font-style:normal;font-variant:normal;font-weight:normal;font-stretch:normal;font-size:4.23333311px;font-family:'Gotham Rounded';-inkscape-font-specification:'Gotham Rounded';text-align:center;text-anchor:middle;stroke-width:0.26458332px"
         id="path5033" />
      <path
         d="m 16.019925,179.01686 c 0.706967,0 1.2319,-0.52916 1.2319,-1.1811 v -0.008 c 0,-0.65194 -0.5207,-1.17264 -1.223433,-1.17264 -0.706967,0 -1.2319,0.52917 -1.2319,1.1811 v 0.008 c 0,0.65193 0.5207,1.17263 1.223433,1.17263 z m 0.0085,-0.55456 c -0.3556,0 -0.5969,-0.2921 -0.5969,-0.62654 v -0.008 c 0,-0.33444 0.220133,-0.61807 0.588433,-0.61807 0.3556,0 0.5969,0.2921 0.5969,0.62653 v 0.008 c 0,0.33443 -0.220133,0.61807 -0.588433,0.61807 z"
         style="font-style:normal;font-variant:normal;font-weight:normal;font-stretch:normal;font-size:4.23333311px;font-family:'Gotham Rounded';-inkscape-font-specification:'Gotham Rounded';text-align:center;text-anchor:middle;stroke-width:0.26458332px"
         id="path5035" />
      <path
         d="m 19.999523,176.17206 c 0,-0.1778 -0.143933,-0.32173 -0.321733,-0.32173 -0.1778,0 -0.321733,0.14393 -0.321733,0.32173 v 0.82127 c -0.1524,-0.18203 -0.364067,-0.33867 -0.706967,-0.33867 -0.537633,0 -1.032933,0.41487 -1.032933,1.17264 v 0.008 c 0,0.75777 0.503766,1.17264 1.032933,1.17264 0.334433,0 0.550333,-0.15664 0.706967,-0.3683 v 0.0296 c 0,0.1778 0.143933,0.32173 0.321733,0.32173 0.1778,0 0.321733,-0.14393 0.321733,-0.32173 z m -1.185333,1.0287 c 0.300567,0 0.550333,0.24977 0.550333,0.62654 v 0.008 c 0,0.37677 -0.249766,0.62654 -0.550333,0.62654 -0.300567,0 -0.554567,-0.24977 -0.554567,-0.62654 v -0.008 c 0,-0.381 0.254,-0.62654 0.554567,-0.62654 z"
         style="font-style:normal;font-variant:normal;font-weight:normal;font-stretch:normal;font-size:4.23333311px;font-family:'Gotham Rounded';-inkscape-font-specification:'Gotham Rounded';text-align:center;text-anchor:middle;stroke-width:0.26458332px"
         id="path5037" />
      <path
         d="m 22.640196,176.99333 c 0,-0.1778 -0.143933,-0.32173 -0.321733,-0.32173 -0.1778,0 -0.321733,0.14393 -0.321733,0.32173 v 0.96943 c 0,0.3048 -0.156634,0.46144 -0.402167,0.46144 -0.245533,0 -0.389467,-0.15664 -0.389467,-0.46144 v -0.96943 c 0,-0.1778 -0.143933,-0.32173 -0.321733,-0.32173 -0.1778,0 -0.321733,0.14393 -0.321733,0.32173 v 1.17263 c 0,0.5207 0.283633,0.84244 0.770466,0.84244 0.325967,0 0.516467,-0.17357 0.664634,-0.36407 v 0.0254 c 0,0.1778 0.143933,0.32173 0.321733,0.32173 0.1778,0 0.321733,-0.14393 0.321733,-0.32173 z"
         style="font-style:normal;font-variant:normal;font-weight:normal;font-stretch:normal;font-size:4.23333311px;font-family:'Gotham Rounded';-inkscape-font-specification:'Gotham Rounded';text-align:center;text-anchor:middle;stroke-width:0.26458332px"
         id="path5039" />
      <path
         d="m 23.245762,178.66973 c 0,0.1778 0.143933,0.32173 0.321733,0.32173 0.1778,0 0.321734,-0.14393 0.321734,-0.32173 v -2.49767 c 0,-0.1778 -0.143934,-0.32173 -0.321734,-0.32173 -0.1778,0 -0.321733,0.14393 -0.321733,0.32173 z"
         style="font-style:normal;font-variant:normal;font-weight:normal;font-stretch:normal;font-size:4.23333311px;font-family:'Gotham Rounded';-inkscape-font-specification:'Gotham Rounded';text-align:center;text-anchor:middle;stroke-width:0.26458332px"
         id="path5041" />
      <path
         d="m 25.018403,177.65373 c 0.0508,-0.2921 0.224367,-0.4826 0.491067,-0.4826 0.270933,0 0.440266,0.19473 0.478366,0.4826 z m 1.341967,1.08797 c 0.04657,-0.0423 0.08467,-0.10584 0.08467,-0.1905 0,-0.14394 -0.105833,-0.254 -0.249766,-0.254 -0.06773,0 -0.110067,0.0169 -0.156634,0.0508 -0.131233,0.0974 -0.2794,0.1524 -0.4572,0.1524 -0.287866,0 -0.491066,-0.1524 -0.554566,-0.4445 h 1.274233 c 0.169333,0 0.300567,-0.12277 0.300567,-0.30904 0,-0.4699 -0.334434,-1.0922 -1.0922,-1.0922 -0.6604,0 -1.121834,0.5334 -1.121834,1.1811 v 0.008 c 0,0.69427 0.503767,1.17263 1.185334,1.17263 0.3302,0 0.588433,-0.10583 0.7874,-0.27516 z"
         style="font-style:normal;font-variant:normal;font-weight:normal;font-stretch:normal;font-size:4.23333311px;font-family:'Gotham Rounded';-inkscape-font-specification:'Gotham Rounded';text-align:center;text-anchor:middle;stroke-width:0.26458332px"
         id="path5043" />
    </g>
    <g
       style="font-style:normal;font-variant:normal;font-weight:normal;font-stretch:normal;font-size:4.58611107px;line-height:100%;font-family:Courier;-inkscape-font-specification:'Courier, Normal';text-align:start;letter-spacing:0px;word-spacing:0px;writing-mode:lr-tb;text-anchor:start;fill:#000000;fill-opacity:1;stroke:none;stroke-width:1px;stroke-linecap:butt;stroke-linejoin:miter;stroke-opacity:1"
       id="text3518">
      <path
         d="m 3.457739,233.40929 0,0.21555 0.3256138,0 -0.077964,2.15088 -0.2797528,0 0,0.21555 0.9722555,0 0,-0.21555 -0.4907139,0 0.068792,-2.15088 0.08255,0 0.5961944,1.70603 0.2384778,0 0.6420556,-1.70603 0.08255,0 0.068792,2.15088 -0.4907138,0 0,0.21555 0.9722555,0 0,-0.21555 -0.2797528,0 -0.077964,-2.15088 0.3256139,0 0,-0.21555 -0.7383639,0 -0.5686777,1.55469 -0.08255,0 -0.5228167,-1.55469 -0.7658805,0 z"
         style=""
         id="path3491" />
      <path
         d="m 6.4094032,234.9915 c 0,0.54575 0.3898194,1.06398 1.1373555,1.06398 0.7658805,0 1.1373555,-0.53658 1.1373555,-1.06398 0,-0.5274 -0.371475,-1.06398 -1.1373555,-1.06398 -0.7475361,0 -1.1373555,0.51365 -1.1373555,1.06398 z m 0.24765,0 c 0,-0.43568 0.3164416,-0.83467 0.8897055,-0.83467 0.5870222,0 0.8897055,0.40816 0.8897055,0.83467 0,0.42192 -0.3026833,0.83467 -0.8897055,0.83467 -0.57785,0 -0.8897055,-0.40358 -0.8897055,-0.83467 z"
         style=""
         id="path3493" />
      <path
         d="m 10.214084,233.20292 0.01376,0.20637 0.738364,-0.0459 0,1.03188 -0.0092,0 c -0.169686,-0.25224 -0.504472,-0.39441 -0.784225,-0.39441 -0.4953,0 -1.0089444,0.39899 -1.0089444,1.01812 0,0.55033 0.4448527,1.01811 1.0181164,1.01811 0.08714,0 0.490714,0 0.775053,-0.38523 l 0.0092,0 0,0.33937 0.619125,0 0,-0.21555 -0.389819,0 0,-2.65994 -0.981428,0.0871 z m 0.74295,1.82527 c 0,0.44944 -0.357717,0.77964 -0.775053,0.77964 -0.4127498,0 -0.7704664,-0.32562 -0.7704664,-0.7934 0,-0.47237 0.3668889,-0.78422 0.7704664,-0.78422 0.509059,0 0.775053,0.43568 0.775053,0.79798 z"
         style=""
         id="path3495" />
      <path
         d="m 12.147632,233.54687 0.09172,0.20179 0.733778,-0.33937 0,2.36643 -0.797984,0 0,0.21555 1.811514,0 0,-0.21555 -0.784225,0 0,-2.63242 -0.146755,0 -0.90805,0.40357 z"
         style=""
         id="path3497" />
    </g>
    <g
       style="font-style:normal;font-variant:normal;font-weight:normal;font-stretch:normal;font-size:4.58611107px;line-height:100%;font-family:Courier;-inkscape-font-specification:'Courier, Normal';text-align:start;letter-spacing:0px;word-spacing:0px;writing-mode:lr-tb;text-anchor:start;fill:#000000;fill-opacity:1;stroke:none;stroke-width:1px;stroke-linecap:butt;stroke-linejoin:miter;stroke-opacity:1"
       id="text3522">
      <path
         d="m 3.7428263,252.79523 0,0.21555 0.3256139,0 -0.077964,2.15089 -0.2797528,0 0,0.21554 0.9722556,0 0,-0.21554 -0.4907139,0 0.068792,-2.15089 0.08255,0 0.5961944,1.70603 0.2384778,0 0.6420555,-1.70603 0.08255,0 0.068792,2.15089 -0.4907139,0 0,0.21554 0.9722555,0 0,-0.21554 -0.2797527,0 -0.077964,-2.15089 0.3256139,0 0,-0.21555 -0.7383639,0 -0.5686778,1.55469 -0.08255,0 -0.5228166,-1.55469 -0.7658806,0 z"
         style=""
         id="path3511" />
      <path
         d="m 6.6944905,254.37744 c 0,0.54575 0.3898194,1.06398 1.1373555,1.06398 0.7658806,0 1.1373556,-0.53658 1.1373556,-1.06398 0,-0.5274 -0.371475,-1.06398 -1.1373556,-1.06398 -0.7475361,0 -1.1373555,0.51365 -1.1373555,1.06398 z m 0.24765,0 c 0,-0.43568 0.3164417,-0.83467 0.8897055,-0.83467 0.5870223,0 0.8897056,0.40816 0.8897056,0.83467 0,0.42192 -0.3026833,0.83467 -0.8897056,0.83467 -0.5778499,0 -0.8897055,-0.40358 -0.8897055,-0.83467 z"
         style=""
         id="path3513" />
      <path
         d="m 10.499171,252.58886 0.01376,0.20637 0.738364,-0.0459 0,1.03188 -0.0092,0 c -0.169686,-0.25224 -0.504472,-0.39441 -0.784225,-0.39441 -0.4952996,0 -1.0089441,0.39899 -1.0089441,1.01812 0,0.55033 0.4448528,1.01811 1.0181171,1.01811 0.08714,0 0.490713,0 0.775052,-0.38523 l 0.0092,0 0,0.33937 0.619125,0 0,-0.21554 -0.38982,0 0,-2.65995 -0.981428,0.0871 z m 0.74295,1.82527 c 0,0.44944 -0.357716,0.77964 -0.775052,0.77964 -0.41275,0 -0.7704671,-0.32562 -0.7704671,-0.7934 0,-0.47237 0.3668891,-0.78422 0.7704671,-0.78422 0.509058,0 0.775052,0.43568 0.775052,0.79798 z"
         style=""
         id="path3515" />
      <path
         d="m 13.904861,254.70764 0,0.45403 -1.265767,0 0,-0.009 c 0.614539,-0.49071 1.183217,-1.03187 1.329972,-1.26576 0.110067,-0.17428 0.155928,-0.31186 0.155928,-0.50906 0,-0.51823 -0.440267,-0.84843 -0.871361,-0.84843 -0.07338,0 -0.490714,0 -0.830086,0.40816 l 0,0.2981 0.238478,0 c -0.02752,-0.37606 0.408164,-0.47696 0.582436,-0.47696 0.233891,0 0.632883,0.17428 0.632883,0.60996 0,0.21096 -0.05045,0.37606 -0.27058,0.59619 -0.371475,0.37606 -1.077737,0.99977 -1.274939,1.16946 l 0,0.24306 1.788583,0 0,-0.66957 -0.215547,0 z"
         style=""
         id="path3517" />
    </g>
    <g
       style="font-style:normal;font-variant:normal;font-weight:normal;font-stretch:normal;font-size:4.58611107px;line-height:100%;font-family:Courier;-inkscape-font-specification:'Courier, Normal';text-align:start;letter-spacing:0px;word-spacing:0px;writing-mode:lr-tb;text-anchor:start;fill:#000000;fill-opacity:1;stroke:none;stroke-width:1px;stroke-linecap:butt;stroke-linejoin:miter;stroke-opacity:1"
       id="text3530">
      <path
         d="m 16.815974,212.56347 0,0.21554 0.385234,0 0,2.15089 -0.385234,0 0,0.21555 1.004359,0 0,-0.21555 -0.38982,0 0,-0.72461 0.316442,-0.30268 c 0.265994,0.133 0.426508,0.32103 0.605367,0.62371 0.05962,0.11007 0.206375,0.36689 0.298097,0.61913 l 0.587022,0 0,-0.21555 -0.421922,0 c -0.362303,-0.83009 -0.674159,-1.06398 -0.912636,-1.18322 l 0.995186,-0.96767 0.206375,0 0,-0.21554 -0.894292,0 0,0.21554 0.376061,0 -1.1557,1.1236 0,-1.1236 0.38982,0 0,-0.21554 -1.004359,0 z"
         style=""
         id="path3480" />
      <path
         d="m 19.446611,213.17342 0,0.21555 0.376061,0 0,1.54093 -0.376061,0 0,0.21555 0.9906,0 0,-0.21555 -0.385234,0 0,-1.22908 c 0.41275,-0.32561 0.642056,-0.36689 0.793398,-0.36689 0.27058,0 0.449439,0.21096 0.449439,0.54575 l 0,1.05022 -0.394406,0 0,0.21555 0.9906,0 0,-0.21555 -0.366889,0 0,-1.06856 c 0,-0.44486 -0.265994,-0.75671 -0.68333,-0.75671 -0.334787,0 -0.587023,0.18344 -0.788812,0.32561 l 0,-0.25682 -0.605366,0 z"
         style=""
         id="path3482" />
      <path
         d="m 22.279036,214.14567 c 0,0.54575 0.38982,1.06398 1.137356,1.06398 0.76588,0 1.137355,-0.53657 1.137355,-1.06398 0,-0.5274 -0.371475,-1.06397 -1.137355,-1.06397 -0.747536,0 -1.137356,0.51364 -1.137356,1.06397 z m 0.24765,0 c 0,-0.43568 0.316442,-0.83467 0.889706,-0.83467 0.587022,0 0.889705,0.40817 0.889705,0.83467 0,0.42193 -0.302683,0.83468 -0.889705,0.83468 -0.57785,0 -0.889706,-0.40358 -0.889706,-0.83468 z"
         style=""
         id="path3484" />
      <path
         d="m 24.813364,212.30206 0,0.21555 0.421923,-0.0229 0,2.43523 -0.366889,0 0,0.21555 0.596194,0 0,-0.35313 c 0.105481,0.12382 0.325614,0.39899 0.811742,0.39899 0.596194,0 1.008944,-0.50447 1.008944,-1.01353 0,-0.56868 -0.463197,-1.02271 -1.027289,-1.02271 -0.334786,0 -0.596194,0.15593 -0.784225,0.40358 l -0.0092,0 0,-1.29787 -0.651228,0.0413 z m 0.655814,1.86655 c 0,-0.41734 0.348545,-0.78423 0.797984,-0.78423 0.444852,0 0.770466,0.36689 0.770466,0.78881 0,0.41734 -0.311855,0.78881 -0.76588,0.78881 -0.458611,0 -0.80257,-0.36689 -0.80257,-0.79339 z"
         style=""
         id="path3486" />
      <path
         d="m 28.017265,212.70105 0.09172,0.20179 0.733777,-0.33937 0,2.36643 -0.797983,0 0,0.21555 1.811514,0 0,-0.21555 -0.784225,0 0,-2.63243 -0.146756,0 -0.908049,0.40358 z"
         style=""
         id="path3488" />
    </g>
    <g
       style="font-style:normal;font-variant:normal;font-weight:normal;font-stretch:normal;font-size:4.58611107px;line-height:100%;font-family:Courier;-inkscape-font-specification:'Courier, Normal';text-align:start;letter-spacing:0px;word-spacing:0px;writing-mode:lr-tb;text-anchor:start;fill:#000000;fill-opacity:1;stroke:none;stroke-width:1px;stroke-linecap:butt;stroke-linejoin:miter;stroke-opacity:1"
       id="text3534">
      <path
         d="m 16.548082,232.81615 0,0.21555 0.385233,0 0,2.15089 -0.385233,0 0,0.21554 1.004358,0 0,-0.21554 -0.38982,0 0,-0.72461 0.316442,-0.30268 c 0.265995,0.13299 0.426508,0.32102 0.605367,0.62371 0.05962,0.11006 0.206375,0.36689 0.298097,0.61912 l 0.587022,0 0,-0.21554 -0.421922,0 c -0.362303,-0.83009 -0.674158,-1.06398 -0.912636,-1.18322 l 0.995186,-0.96767 0.206375,0 0,-0.21555 -0.894292,0 0,0.21555 0.376061,0 -1.1557,1.1236 0,-1.1236 0.38982,0 0,-0.21555 -1.004358,0 z"
         style=""
         id="path3500" />
      <path
         d="m 19.178718,233.4261 0,0.21555 0.376061,0 0,1.54094 -0.376061,0 0,0.21554 0.9906,0 0,-0.21554 -0.385233,0 0,-1.22908 c 0.41275,-0.32562 0.642055,-0.36689 0.793397,-0.36689 0.27058,0 0.449439,0.21096 0.449439,0.54575 l 0,1.05022 -0.394406,0 0,0.21554 0.9906,0 0,-0.21554 -0.366889,0 0,-1.06857 c 0,-0.44485 -0.265994,-0.75671 -0.68333,-0.75671 -0.334786,0 -0.587022,0.18345 -0.788811,0.32562 l 0,-0.25683 -0.605367,0 z"
         style=""
         id="path3502" />
      <path
         d="m 22.011143,234.39836 c 0,0.54575 0.38982,1.06398 1.137356,1.06398 0.76588,0 1.137355,-0.53658 1.137355,-1.06398 0,-0.5274 -0.371475,-1.06398 -1.137355,-1.06398 -0.747536,0 -1.137356,0.51365 -1.137356,1.06398 z m 0.24765,0 c 0,-0.43568 0.316442,-0.83467 0.889706,-0.83467 0.587022,0 0.889705,0.40816 0.889705,0.83467 0,0.42192 -0.302683,0.83467 -0.889705,0.83467 -0.57785,0 -0.889706,-0.40358 -0.889706,-0.83467 z"
         style=""
         id="path3504" />
      <path
         d="m 24.545472,232.55474 0,0.21555 0.421922,-0.0229 0,2.43523 -0.366889,0 0,0.21554 0.596194,0 0,-0.35313 c 0.105481,0.12383 0.325614,0.39899 0.811742,0.39899 0.596194,0 1.008944,-0.50447 1.008944,-1.01353 0,-0.56867 -0.463197,-1.0227 -1.027288,-1.0227 -0.334787,0 -0.596195,0.15593 -0.784225,0.40358 l -0.0092,0 0,-1.29787 -0.651227,0.0413 z m 0.655813,1.86655 c 0,-0.41734 0.348545,-0.78422 0.797984,-0.78422 0.444853,0 0.770466,0.36688 0.770466,0.78881 0,0.41733 -0.311855,0.78881 -0.76588,0.78881 -0.458611,0 -0.80257,-0.36689 -0.80257,-0.7934 z"
         style=""
         id="path3506" />
      <path
         d="m 29.221513,234.72856 0,0.45403 -1.265766,0 0,-0.009 c 0.614539,-0.49071 1.183216,-1.03187 1.329972,-1.26576 0.110067,-0.17428 0.155928,-0.31186 0.155928,-0.50906 0,-0.51823 -0.440267,-0.84843 -0.871361,-0.84843 -0.07338,0 -0.490714,0 -0.830087,0.40816 l 0,0.2981 0.238478,0 c -0.02752,-0.37606 0.408164,-0.47696 0.582436,-0.47696 0.233892,0 0.632884,0.17428 0.632884,0.60996 0,0.21096 -0.05045,0.37606 -0.270581,0.59619 -0.371475,0.37606 -1.077736,0.99977 -1.274939,1.16946 l 0,0.24306 1.788584,0 0,-0.66957 -0.215548,0 z"
         style=""
         id="path3508" />
    </g>
    <g
       style="font-style:normal;font-variant:normal;font-weight:normal;font-stretch:normal;font-size:4.58611107px;line-height:100%;font-family:Courier;-inkscape-font-specification:'Courier, Normal';text-align:start;letter-spacing:0px;word-spacing:0px;writing-mode:lr-tb;text-anchor:start;fill:#000000;fill-opacity:1;stroke:none;stroke-width:1px;stroke-linecap:butt;stroke-linejoin:miter;stroke-opacity:1"
       id="text3538">
      <path
         d="m 16.553811,253.36541 0,0.21554 0.385234,0 0,2.15089 -0.385234,0 0,0.21555 1.004359,0 0,-0.21555 -0.38982,0 0,-0.72461 0.316442,-0.30268 c 0.265994,0.133 0.426508,0.32103 0.605366,0.62371 0.05962,0.11007 0.206375,0.36689 0.298098,0.61913 l 0.587022,0 0,-0.21555 -0.421922,0 c -0.362303,-0.83009 -0.674159,-1.06398 -0.912636,-1.18322 l 0.995186,-0.96767 0.206375,0 0,-0.21554 -0.894292,0 0,0.21554 0.376061,0 -1.1557,1.1236 0,-1.1236 0.38982,0 0,-0.21554 -1.004359,0 z"
         style=""
         id="path3520" />
      <path
         d="m 19.184448,253.97536 0,0.21555 0.376061,0 0,1.54093 -0.376061,0 0,0.21555 0.9906,0 0,-0.21555 -0.385234,0 0,-1.22908 c 0.41275,-0.32561 0.642056,-0.36689 0.793398,-0.36689 0.27058,0 0.449438,0.21096 0.449438,0.54575 l 0,1.05022 -0.394405,0 0,0.21555 0.9906,0 0,-0.21555 -0.366889,0 0,-1.06856 c 0,-0.44486 -0.265994,-0.75671 -0.683331,-0.75671 -0.334786,0 -0.587022,0.18344 -0.788811,0.32561 l 0,-0.25682 -0.605366,0 z"
         style=""
         id="path3522" />
      <path
         d="m 22.016873,254.94762 c 0,0.54574 0.389819,1.06397 1.137355,1.06397 0.765881,0 1.137356,-0.53657 1.137356,-1.06397 0,-0.52741 -0.371475,-1.06398 -1.137356,-1.06398 -0.747536,0 -1.137355,0.51364 -1.137355,1.06398 z m 0.24765,0 c 0,-0.43569 0.316442,-0.83468 0.889705,-0.83468 0.587023,0 0.889706,0.40817 0.889706,0.83468 0,0.42192 -0.302683,0.83467 -0.889706,0.83467 -0.577849,0 -0.889705,-0.40358 -0.889705,-0.83467 z"
         style=""
         id="path3524" />
      <path
         d="m 24.551201,253.104 0,0.21555 0.421922,-0.0229 0,2.43522 -0.366888,0 0,0.21555 0.596194,0 0,-0.35313 c 0.105481,0.12382 0.325614,0.39899 0.811742,0.39899 0.596194,0 1.008944,-0.50447 1.008944,-1.01353 0,-0.56868 -0.463197,-1.0227 -1.027289,-1.0227 -0.334786,0 -0.596194,0.15592 -0.784225,0.40357 l -0.0092,0 0,-1.29787 -0.651228,0.0413 z m 0.655814,1.86655 c 0,-0.41734 0.348545,-0.78423 0.797983,-0.78423 0.444853,0 0.770467,0.36689 0.770467,0.78881 0,0.41734 -0.311855,0.78881 -0.76588,0.78881 -0.458612,0 -0.80257,-0.36689 -0.80257,-0.79339 z"
         style=""
         id="path3526" />
      <path
         d="m 27.663379,255.78687 c 0.376061,0.15135 0.55492,0.22472 0.834672,0.22472 0.513645,0 0.921809,-0.3302 0.921809,-0.84843 0,-0.42651 -0.302684,-0.65123 -0.4953,-0.72919 0.08255,-0.0504 0.35313,-0.21555 0.35313,-0.62371 0,-0.44944 -0.389819,-0.71085 -0.779639,-0.71085 -0.293511,0 -0.527402,0.13759 -0.779639,0.30269 l 0.114653,0.17885 0.08255,-0.0504 c 0.14217,-0.0871 0.339372,-0.21555 0.57785,-0.21555 0.30727,0 0.545747,0.1972 0.545747,0.49989 0,0.17885 -0.08714,0.34854 -0.238477,0.44943 -0.137584,0.0917 -0.30727,0.0963 -0.440267,0.0963 l 0,0.21555 c 0.146756,-0.009 0.284339,-0.0138 0.444853,0.0413 0.03669,0.009 0.380647,0.12382 0.380647,0.55491 0,0.40817 -0.339372,0.62372 -0.674158,0.62372 -0.256823,0 -0.531989,-0.1009 -0.761295,-0.21097 l -0.08714,0.20179 z"
         style=""
         id="path3528" />
    </g>
    <g
       style="font-style:normal;font-variant:normal;font-weight:normal;font-stretch:normal;font-size:4.58611107px;line-height:100%;font-family:Courier;-inkscape-font-specification:'Courier, Normal';text-align:start;letter-spacing:0px;word-spacing:0px;writing-mode:lr-tb;text-anchor:start;fill:#000000;fill-opacity:1;stroke:none;stroke-width:1px;stroke-linecap:butt;stroke-linejoin:miter;stroke-opacity:1"
       id="text3542">
      <path
         d="m 16.245798,273.01928 0,0.21554 0.385234,0 0,2.15089 -0.385234,0 0,0.21555 1.004359,0 0,-0.21555 -0.38982,0 0,-0.72461 0.316442,-0.30268 c 0.265994,0.133 0.426508,0.32103 0.605366,0.62371 0.05962,0.11007 0.206375,0.36689 0.298098,0.61913 l 0.587022,0 0,-0.21555 -0.421922,0 c -0.362303,-0.83009 -0.674159,-1.06398 -0.912636,-1.18322 l 0.995186,-0.96767 0.206375,0 0,-0.21554 -0.894292,0 0,0.21554 0.376061,0 -1.1557,1.1236 0,-1.1236 0.38982,0 0,-0.21554 -1.004359,0 z"
         style=""
         id="path3531" />
      <path
         d="m 18.876435,273.62923 0,0.21555 0.376061,0 0,1.54093 -0.376061,0 0,0.21555 0.9906,0 0,-0.21555 -0.385234,0 0,-1.22908 c 0.41275,-0.32561 0.642056,-0.36689 0.793398,-0.36689 0.27058,0 0.449438,0.21096 0.449438,0.54575 l 0,1.05022 -0.394405,0 0,0.21555 0.9906,0 0,-0.21555 -0.366889,0 0,-1.06856 c 0,-0.44486 -0.265994,-0.75671 -0.683331,-0.75671 -0.334786,0 -0.587022,0.18344 -0.788811,0.32561 l 0,-0.25682 -0.605366,0 z"
         style=""
         id="path3533" />
      <path
         d="m 21.70886,274.60149 c 0,0.54574 0.389819,1.06397 1.137356,1.06397 0.76588,0 1.137355,-0.53657 1.137355,-1.06397 0,-0.52741 -0.371475,-1.06398 -1.137355,-1.06398 -0.747537,0 -1.137356,0.51364 -1.137356,1.06398 z m 0.24765,0 c 0,-0.43569 0.316442,-0.83468 0.889706,-0.83468 0.587022,0 0.889705,0.40817 0.889705,0.83468 0,0.42192 -0.302683,0.83467 -0.889705,0.83467 -0.57785,0 -0.889706,-0.40358 -0.889706,-0.83467 z"
         style=""
         id="path3535" />
      <path
         d="m 24.243188,272.75787 0,0.21555 0.421923,-0.0229 0,2.43522 -0.366889,0 0,0.21555 0.596194,0 0,-0.35313 c 0.105481,0.12382 0.325614,0.39899 0.811742,0.39899 0.596194,0 1.008944,-0.50447 1.008944,-1.01353 0,-0.56868 -0.463197,-1.0227 -1.027289,-1.0227 -0.334786,0 -0.596194,0.15592 -0.784225,0.40357 l -0.0092,0 0,-1.29787 -0.651228,0.0413 z m 0.655814,1.86655 c 0,-0.41734 0.348545,-0.78423 0.797984,-0.78423 0.444852,0 0.770466,0.36689 0.770466,0.78881 0,0.41734 -0.311855,0.78881 -0.76588,0.78881 -0.458611,0 -0.80257,-0.36689 -0.80257,-0.79339 z"
         style=""
         id="path3537" />
      <path
         d="m 28.758716,272.75328 -0.311855,0 -1.137356,1.91241 0,0.266 1.229078,0 0,0.45402 -0.619125,0 0,0.21555 1.252008,0 0,-0.21555 -0.41275,0 0,-0.45402 0.41275,0 0,-0.22014 -0.41275,0 0,-1.95827 z m -1.224492,1.95827 0.995187,-1.69227 0.0092,0 0,1.69227 -1.004359,0 z"
         style=""
         id="path3539" />
    </g>
    <rect
       style="opacity:1;fill:#b3b3b3;fill-opacity:1;fill-rule:nonzero;stroke:#000000;stroke-width:0.10508376;stroke-miterlimit:4;stroke-dasharray:none;stroke-opacity:1"
       id="rect3548"
       width="13.120941"
       height="31.081451"
       x="1.7013366"
       y="262.50092" />
  </g>
  <g
     inkscape:groupmode="layer"
     id="layer2"
     inkscape:label="components">
    <circle
       style="display:inline;opacity:1;fill:#ff0000;fill-opacity:1;fill-rule:evenodd;stroke:none;stroke-width:1;stroke-linecap:butt;stroke-linejoin:miter;stroke-miterlimit:4;stroke-dasharray:none;stroke-dashoffset:0;stroke-opacity:1;paint-order:normal"
       id="path4954"
       cx="22"
       cy="40"
       r="4"
       inkscape:label="knob1" />
    <circle
       r="4"
       cy="40"
       cx="8"
       id="circle4956"
       style="display:inline;opacity:1;fill:#00ff00;fill-opacity:1;fill-rule:evenodd;stroke:none;stroke-width:1;stroke-linecap:butt;stroke-linejoin:miter;stroke-miterlimit:4;stroke-dasharray:none;stroke-dashoffset:0;stroke-opacity:1;paint-order:normal"
       inkscape:label="clock" />
    <circle
       style="display:inline;opacity:1;fill:#0000ff;fill-opacity:1;fill-rule:evenodd;stroke:none;stroke-width:1;stroke-linecap:butt;stroke-linejoin:miter;stroke-miterlimit:4;stroke-dasharray:none;stroke-dashoffset:0;stroke-opacity:1;paint-order:normal"
       id="circle4958"
       cx="8"
       cy="100"
       r="4"
       inkscape:label="out1" />
    <circle
       inkscape:label="blink"
       r="4"
       cy="18.472103"
       cx="15.24"
       id="circle66"
       style="display:inline;opacity:1;fill:#ff00ff;fill-opacity:1;fill-rule:evenodd;stroke:none;stroke-width:1;stroke-linecap:butt;stroke-linejoin:miter;stroke-miterlimit:4;stroke-dasharray:none;stroke-dashoffset:0;stroke-opacity:1;paint-order:normal" />
    <circle
       cy="60"
       cx="8"
       id="circle4956-3"
       style="display:inline;opacity:1;fill:#00ff00;fill-opacity:1;fill-rule:evenodd;stroke:none;stroke-width:1;stroke-linecap:butt;stroke-linejoin:miter;stroke-miterlimit:4;stroke-dasharray:none;stroke-dashoffset:0;stroke-opacity:1;paint-order:normal"
       inkscape:label="mod1"
       r="4" />
    <circle
       cy="80"
       cx="8"
       id="circle4956-6"
       style="display:inline;opacity:1;fill:#00ff00;fill-opacity:1;fill-rule:evenodd;stroke:none;stroke-width:1;stroke-linecap:butt;stroke-linejoin:miter;stroke-miterlimit:4;stroke-dasharray:none;stroke-dashoffset:0;stroke-opacity:1;paint-order:normal"
       inkscape:label="mod2"
       r="4" />
    <circle
       style="display:inline;opacity:1;fill:#ff0000;fill-opacity:1;fill-rule:evenodd;stroke:none;stroke-width:1;stroke-linecap:butt;stroke-linejoin:miter;stroke-miterlimit:4;stroke-dasharray:none;stroke-dashoffset:0;stroke-opacity:1;paint-order:normal"
       id="path4954-5"
       cx="22"
       cy="60"
       inkscape:label="knob2"
       r="4" />
    <circle
       style="display:inline;opacity:1;fill:#ff0000;fill-opacity:1;fill-rule:evenodd;stroke:none;stroke-width:1;stroke-linecap:butt;stroke-linejoin:miter;stroke-miterlimit:4;stroke-dasharray:none;stroke-dashoffset:0;stroke-opacity:1;paint-order:normal"
       id="path4954-3"
       cx="22"
       cy="80"
       inkscape:label="knob3"
       r="4" />
    <circle
       style="display:inline;opacity:1;fill:#ff0000;fill-opacity:1;fill-rule:evenodd;stroke:none;stroke-width:1;stroke-linecap:butt;stroke-linejoin:miter;stroke-miterlimit:4;stroke-dasharray:none;stroke-dashoffset:0;stroke-opacity:1;paint-order:normal"
       id="path4954-56"
       cx="22"
       cy="100"
       inkscape:label="knob4"
       r="4" />
    <text
       xml:space="preserve"
       style="font-style:normal;font-variant:normal;font-weight:300;font-stretch:normal;font-size:7.05555582px;line-height:100%;font-family:Raleway;-inkscape-font-specification:'Raleway, Light';text-align:start;letter-spacing:0px;word-spacing:0px;writing-mode:lr-tb;text-anchor:start;fill:#000000;fill-opacity:1;stroke:none;stroke-width:1px;stroke-linecap:butt;stroke-linejoin:miter;stroke-opacity:1"
       x="3.4210501"
       y="46.679893"
       id="text3474"
       sodipodi:linespacing="100%"><tspan
         sodipodi:role="line"
         id="tspan3476"
         x="3.4210501"
         y="46.679893" /></text>
    <g
       style="font-style:normal;font-variant:normal;font-weight:300;font-stretch:normal;font-size:7.05555582px;line-height:100%;font-family:Raleway;-inkscape-font-specification:'Raleway, Light';text-align:start;letter-spacing:0px;word-spacing:0px;writing-mode:lr-tb;text-anchor:start;fill:#000000;fill-opacity:1;stroke:none;stroke-width:1px;stroke-linecap:butt;stroke-linejoin:miter;stroke-opacity:1"
       id="text3478">
      <path
         d="m 3.7475415,45.792866 c -0.2980972,0.261408 -0.6237111,0.467783 -1.0410472,0.467783 -0.784225,0 -0.9906,-0.715433 -0.9906,-1.174044 0,-0.605367 0.371475,-1.105253 0.9722555,-1.105253 0.3347861,0 0.5044722,0.14217 0.5916083,0.270581 0.1054806,0.155928 0.1329973,0.334786 0.1513417,0.440266 l 0.2155472,-0.03669 c -0.032103,-0.243064 -0.059619,-0.499887 -0.045861,-0.875948 l -0.1696861,0 c -0.00917,0.08255 -0.027517,0.220134 -0.068792,0.220134 -0.00917,0 -0.018344,0 -0.077964,-0.05045 -0.036689,-0.0321 -0.2201334,-0.197202 -0.5870223,-0.197202 -0.6970888,0 -1.2290777,0.541161 -1.2290777,1.339144 0,0.747536 0.4310944,1.398764 1.23825,1.398764 0.1880305,0 0.6787444,-0.04127 1.1923888,-0.531989 l -0.1513416,-0.1651 z"
         style="font-style:normal;font-variant:normal;font-weight:normal;font-stretch:normal;font-size:4.58611107px;line-height:100%;font-family:Courier;-inkscape-font-specification:'Courier, Normal';text-align:start;writing-mode:lr-tb;text-anchor:start"
         id="path3469" />
      <path
         d="m 4.4153224,43.674083 0.022931,0.210961 0.7475361,-0.05503 0,2.366433 -0.7979833,0 0,0.215547 1.8252722,0 0,-0.215547 -0.7979833,0 0,-2.586567 -0.9997722,0.06421 z"
         style="font-style:normal;font-variant:normal;font-weight:normal;font-stretch:normal;font-size:4.58611107px;line-height:100%;font-family:Courier;-inkscape-font-specification:'Courier, Normal';text-align:start;writing-mode:lr-tb;text-anchor:start"
         id="path3471" />
      <path
         d="m 6.9129616,45.412219 c 0,0.545747 0.3898194,1.063978 1.1373555,1.063978 0.7658805,0 1.1373555,-0.536575 1.1373555,-1.063978 0,-0.527403 -0.371475,-1.063978 -1.1373555,-1.063978 -0.7475361,0 -1.1373555,0.513645 -1.1373555,1.063978 z m 0.2476499,0 c 0,-0.435681 0.3164417,-0.834672 0.8897056,-0.834672 0.5870222,0 0.8897055,0.408164 0.8897055,0.834672 0,0.421922 -0.3026833,0.834672 -0.8897055,0.834672 -0.57785,0 -0.8897056,-0.403578 -0.8897056,-0.834672 z"
         style="font-style:normal;font-variant:normal;font-weight:normal;font-stretch:normal;font-size:4.58611107px;line-height:100%;font-family:Courier;-inkscape-font-specification:'Courier, Normal';text-align:start;writing-mode:lr-tb;text-anchor:start"
         id="path3473" />
      <path
         d="m 11.611934,44.380344 c -0.01376,0.05962 -0.02293,0.110067 -0.02752,0.146755 -0.0046,0.02752 -0.02293,0.100895 -0.04586,0.100895 -0.0046,0 -0.01376,-0.0092 -0.01835,-0.01376 -0.265994,-0.220134 -0.499886,-0.243064 -0.674158,-0.243064 -0.747536,0 -1.0960808,0.559505 -1.0960808,1.050219 0,0.582436 0.4356808,1.054806 1.0777358,1.054806 0.509059,0 0.917223,-0.298098 1.114425,-0.444853 l -0.119239,-0.174272 c -0.334786,0.233891 -0.651227,0.389819 -0.972255,0.389819 -0.600781,0 -0.8530168,-0.449439 -0.8530168,-0.830086 0,-0.394406 0.2797528,-0.816328 0.8713608,-0.816328 0.591609,0 0.664986,0.348545 0.697089,0.481542 l 0.01835,0.07796 0.210961,-0.0321 c -0.0092,-0.119239 -0.01376,-0.215547 -0.01376,-0.302683 0,-0.160514 0.02752,-0.3302 0.04128,-0.421923 l -0.210961,-0.02293 z"
         style="font-style:normal;font-variant:normal;font-weight:normal;font-stretch:normal;font-size:4.58611107px;line-height:100%;font-family:Courier;-inkscape-font-specification:'Courier, Normal';text-align:start;writing-mode:lr-tb;text-anchor:start"
         id="path3475" />
      <path
         d="m 12.339334,43.586947 0.01835,0.215547 0.43568,-0.03669 0,2.430639 -0.380647,0 0,0.215547 0.609953,0 0,-0.839258 0.256822,-0.197203 c 0.444853,0.41275 0.628297,0.596194 0.816328,0.820914 l -0.293511,0 0,0.215547 0.953911,0 0,-0.215547 -0.385233,0 c -0.1651,-0.210961 -0.545748,-0.614539 -0.917223,-0.949325 l 0.770467,-0.591608 0.357717,0 0,-0.215548 -0.958498,0 0,0.215548 0.256823,0 0,0.0092 -0.857603,0.651228 0,-1.788584 -0.683331,0.05962 z"
         style="font-style:normal;font-variant:normal;font-weight:normal;font-stretch:normal;font-size:4.58611107px;line-height:100%;font-family:Courier;-inkscape-font-specification:'Courier, Normal';text-align:start;writing-mode:lr-tb;text-anchor:start"
         id="path3477" />
    </g>
    <g
       style="font-style:normal;font-variant:normal;font-weight:normal;font-stretch:normal;font-size:4.58611107px;line-height:100%;font-family:Courier;-inkscape-font-specification:'Courier, Normal';text-align:start;letter-spacing:0px;word-spacing:0px;writing-mode:lr-tb;text-anchor:start;fill:#000000;fill-opacity:1;stroke:none;stroke-width:1px;stroke-linecap:butt;stroke-linejoin:miter;stroke-opacity:1"
       id="text3502">
      <path
         d="m 3.8918792,106.68501 c 0,0.75212 0.4586111,1.36666 1.1786305,1.36666 0.7291917,0 1.1786306,-0.62829 1.1786306,-1.36666 0,-0.74295 -0.4448528,-1.37125 -1.1786306,-1.37125 -0.7200194,0 -1.1786305,0.61454 -1.1786305,1.37125 z m 0.24765,-0.005 c 0,-0.53199 0.2980972,-1.13736 0.9309805,-1.13736 0.5961945,0 0.9309806,0.55951 0.9309806,1.13736 0,0.56867 -0.3256139,1.14194 -0.9309806,1.14194 -0.6145389,0 -0.9309805,-0.5962 -0.9309805,-1.14194 z"
         style=""
         id="path3542" />
      <path
         d="m 6.5913073,106.00168 0,0.21555 0.3760611,0 0,0.99977 c 0,0.3623 0.1284111,0.82091 0.7062611,0.82091 0.3531305,0 0.5916083,-0.20178 0.7200194,-0.31644 l 0,0.25224 0.6007806,0 0,-0.21555 -0.371475,0 0,-1.75648 -0.6237111,0 0,0.21555 0.3944055,0 0,1.19239 c -0.24765,0.27516 -0.4861278,0.39899 -0.7383639,0.39899 -0.4586111,0 -0.4586111,-0.47237 -0.4586111,-0.59161 l 0,-1.21532 -0.6053666,0 z"
         style=""
         id="path3544" />
      <path
         d="m 9.9878242,105.39173 0,0.67416 -0.3118555,0 0,0.21554 0.3118555,0 0,0.86678 c 0,0.30268 0,0.52282 0.1605138,0.68333 0.09631,0.0963 0.284339,0.20637 0.568678,0.20637 0.298097,0 0.651228,-0.12841 0.944739,-0.2614 l -0.08255,-0.20638 c -0.536575,0.22472 -0.733778,0.23848 -0.88512,0.23848 -0.481541,0 -0.476955,-0.32103 -0.476955,-0.6604 l 0,-0.86678 1.109839,0 0,-0.21554 -1.109839,0 0,-0.67416 -0.2293058,0 z"
         style=""
         id="path3546" />
      <path
         d="m 12.421258,105.52931 0.09172,0.20179 0.733778,-0.33937 0,2.36643 -0.797983,0 0,0.21555 1.811514,0 0,-0.21555 -0.784225,0 0,-2.63243 -0.146756,0 -0.90805,0.40358 z"
         style=""
         id="path3548" />
    </g>
    <circle
       style="display:inline;opacity:1;fill:#0000ff;fill-opacity:1;fill-rule:evenodd;stroke:none;stroke-width:1;stroke-linecap:butt;stroke-linejoin:miter;stroke-miterlimit:4;stroke-dasharray:none;stroke-dashoffset:0;stroke-opacity:1;paint-order:normal"
       id="circle4958-8"
       cx="8.2732687"
       cy="115.7785"
       inkscape:label="out2"
       r="4" />
    <g
       style="font-style:normal;font-variant:normal;font-weight:normal;font-stretch:normal;font-size:4.58611107px;line-height:100%;font-family:Courier;-inkscape-font-specification:'Courier, Normal';text-align:start;letter-spacing:0px;word-spacing:0px;writing-mode:lr-tb;text-anchor:start;fill:#000000;fill-opacity:1;stroke:none;stroke-width:1px;stroke-linecap:butt;stroke-linejoin:miter;stroke-opacity:1"
       id="text3567">
      <path
         d="m 3.6354447,121.50383 c 0,0.75212 0.4586111,1.36666 1.1786306,1.36666 0.7291916,0 1.1786305,-0.6283 1.1786305,-1.36666 0,-0.74295 -0.4448527,-1.37125 -1.1786305,-1.37125 -0.7200195,0 -1.1786306,0.61454 -1.1786306,1.37125 z m 0.24765,-0.005 c 0,-0.53199 0.2980973,-1.13735 0.9309806,-1.13735 0.5961944,0 0.9309805,0.5595 0.9309805,1.13735 0,0.56868 -0.3256139,1.14194 -0.9309805,1.14194 -0.6145389,0 -0.9309806,-0.59619 -0.9309806,-1.14194 z"
         style=""
         id="path3551" />
      <path
         d="m 6.3348728,120.8205 0,0.21555 0.3760611,0 0,0.99977 c 0,0.3623 0.1284111,0.82091 0.7062611,0.82091 0.3531306,0 0.5916084,-0.20179 0.7200195,-0.31644 l 0,0.25224 0.6007805,0 0,-0.21555 -0.371475,0 0,-1.75648 -0.6237111,0 0,0.21555 0.3944056,0 0,1.19238 c -0.24765,0.27517 -0.4861278,0.399 -0.7383639,0.399 -0.4586111,0 -0.4586111,-0.47237 -0.4586111,-0.59161 l 0,-1.21532 -0.6053667,0 z"
         style=""
         id="path3553" />
      <path
         d="m 9.7313898,120.21055 0,0.67415 -0.3118556,0 0,0.21555 0.3118556,0 0,0.86678 c 0,0.30268 0,0.52281 0.1605139,0.68333 0.096308,0.0963 0.2843393,0.20637 0.5686773,0.20637 0.298098,0 0.651228,-0.12841 0.944739,-0.26141 l -0.08255,-0.20637 c -0.536575,0.22472 -0.733777,0.23848 -0.885119,0.23848 -0.4815418,0 -0.4769557,-0.32103 -0.4769557,-0.6604 l 0,-0.86678 1.1098387,0 0,-0.21555 -1.1098387,0 0,-0.67415 -0.2293055,0 z"
         style=""
         id="path3555" />
      <path
         d="m 13.636965,122.12295 0,0.45403 -1.265766,0 0,-0.009 c 0.614539,-0.49072 1.183216,-1.03188 1.329972,-1.26577 0.110067,-0.17427 0.155928,-0.31186 0.155928,-0.50906 0,-0.51823 -0.440267,-0.84843 -0.871361,-0.84843 -0.07338,0 -0.490714,0 -0.830087,0.40817 l 0,0.29809 0.238478,0 c -0.02752,-0.37606 0.408164,-0.47695 0.582436,-0.47695 0.233892,0 0.632884,0.17427 0.632884,0.60995 0,0.21096 -0.05045,0.37606 -0.270581,0.59619 -0.371475,0.37607 -1.077736,0.99978 -1.274939,1.16946 l 0,0.24307 1.788584,0 0,-0.66958 -0.215548,0 z"
         style=""
         id="path3557" />
    </g>
  </g>
</svg>
